name C:\Users\u0150099\Documents\master_thesis\3dpredictsim\Results\debug\Fal_s1_mtjc2_sc_cspx10_oy2_ATx70_Fpsl10_MTc2_MTPm_k1_d01_MTJm_nl_MG_exp5_table_d01_PF_Natali2010_x3_ls146_ig21_wAk1e+04_wa2e+03_wpMnD1e+03.mot
datacolumns 128
datarows 4
range 1.66410616 1.69738829
endheader
time	pelvis_tilt	pelvis_list	pelvis_rotation	pelvis_tx	pelvis_ty	pelvis_tz	hip_flexion_l	hip_adduction_l	hip_rotation_l	hip_flexion_r	hip_adduction_r	hip_rotation_r	knee_angle_l	knee_angle_r	ankle_angle_l	ankle_angle_r	subtalar_angle_l	subtalar_angle_r	mtj_angle_l	mtj_angle_r	mtp_angle_l	mtp_angle_r	lumbar_extension	lumbar_bending	lumbar_rotation	arm_flex_l	arm_add_l	arm_rot_l	arm_flex_r	arm_add_r	arm_rot_r	elbow_flex_l	elbow_flex_r	pro_sup_l	pro_sup_r	glut_med1_l/activation	glut_med2_l/activation	glut_med3_l/activation	glut_min1_l/activation	glut_min2_l/activation	glut_min3_l/activation	semimem_l/activation	semiten_l/activation	bifemlh_l/activation	bifemsh_l/activation	sar_l/activation	add_long_l/activation	add_brev_l/activation	add_mag1_l/activation	add_mag2_l/activation	add_mag3_l/activation	tfl_l/activation	pect_l/activation	grac_l/activation	glut_max1_l/activation	glut_max2_l/activation	glut_max3_l/activation	iliacus_l/activation	psoas_l/activation	quad_fem_l/activation	gem_l/activation	peri_l/activation	rect_fem_l/activation	vas_med_l/activation	vas_int_l/activation	vas_lat_l/activation	med_gas_l/activation	lat_gas_l/activation	soleus_l/activation	tib_post_l/activation	flex_dig_l/activation	flex_hal_l/activation	tib_ant_l/activation	per_brev_l/activation	per_long_l/activation	per_tert_l/activation	ext_dig_l/activation	ext_hal_l/activation	ercspn_l/activation	intobl_l/activation	extobl_l/activation	glut_med1_r/activation	glut_med2_r/activation	glut_med3_r/activation	glut_min1_r/activation	glut_min2_r/activation	glut_min3_r/activation	semimem_r/activation	semiten_r/activation	bifemlh_r/activation	bifemsh_r/activation	sar_r/activation	add_long_r/activation	add_brev_r/activation	add_mag1_r/activation	add_mag2_r/activation	add_mag3_r/activation	tfl_r/activation	pect_r/activation	grac_r/activation	glut_max1_r/activation	glut_max2_r/activation	glut_max3_r/activation	iliacus_r/activation	psoas_r/activation	quad_fem_r/activation	gem_r/activation	peri_r/activation	rect_fem_r/activation	vas_med_r/activation	vas_int_r/activation	vas_lat_r/activation	med_gas_r/activation	lat_gas_r/activation	soleus_r/activation	tib_post_r/activation	flex_dig_r/activation	flex_hal_r/activation	tib_ant_r/activation	per_brev_r/activation	per_long_r/activation	per_tert_r/activation	ext_dig_r/activation	ext_hal_r/activation	ercspn_r/activation	intobl_r/activation	extobl_r/activation	
          1.66410616	         -2.84309125	          2.16339368	         -9.25706795	          2.21326120	          0.91075800	          0.01226124	         25.17485346	          1.29494721	         -4.34594773	        -20.55463272	         -0.49187850	         12.10569897	         -3.88479418	         -5.09891916	         -3.95104080	         -2.64196345	         -3.76485343	         -5.98678550	          2.71501090	         -2.88571244	         -7.18332236	         26.03639029	         -3.39412253	         -0.64203641	          2.76817070	         -0.98581173	        -13.45155689	          8.94177840	          4.05586799	        -13.93960031	         19.31237165	          3.39914007	         57.91718225	         86.51662706	         86.51662706	          0.05000653	          0.05000195	          0.05000280	          0.05000164	          0.05000192	          0.05000364	          0.29597863	          0.08201111	          0.24926305	          0.09623165	          0.05000377	          0.16585054	          0.19786080	          0.20138169	          0.16160546	          0.16152295	          0.05002166	          0.06994212	          0.16147585	          0.05000816	          0.05001345	          0.19732499	          0.12282960	          0.12089073	          0.10311075	          0.05000239	          0.05000071	          0.05000090	          0.05000692	          0.05000669	          0.05000597	          0.09855903	          0.07804524	          0.05000036	          0.05000099	          0.05070809	          0.05000353	          0.28442630	          0.13995485	          0.12998239	          0.24048770	          0.55086050	          0.33790700	          0.07360612	          0.14475520	          0.06731115	          0.50066075	          0.08374465	          0.05000058	          0.63377144	          0.29955344	          0.09856217	          0.05000368	          0.05000052	          0.05000041	          0.09835952	          0.16521181	          0.05000024	          0.05000030	          0.05000042	          0.05000129	          0.05000128	          0.49777373	          0.05000135	          0.05000079	          0.05000931	          0.05000349	          0.05000168	          0.64755440	          0.77083239	          0.05000024	          0.05000174	          0.05000060	          0.26746168	          0.05000341	          0.05000337	          0.05000307	          0.58240642	          0.67839952	          0.42658241	          0.44145325	          0.40680835	          0.47627365	          0.05000013	          0.08760847	          0.24926614	          0.05000067	          0.05000031	          0.09160991	          0.05000016	          0.05000005	          0.05000011	
          1.67520020	         -2.87989299	          2.26473229	         -9.65818435	          2.23085365	          0.90952694	          0.01259403	         25.30546478	          1.65857124	         -4.13399056	        -20.55580944	         -0.84743342	         11.89243363	         -5.06611213	         -6.67410805	         -4.16599946	         -3.34835739	         -4.02803747	         -5.28979841	          2.85223647	         -4.09895411	         -7.46624814	         29.03585327	         -3.16153956	         -0.85951644	          2.85195395	         -1.88378803	        -13.45059688	          9.07645581	          3.57328187	        -13.84535884	         19.37826434	          1.98135657	         60.72876506	         86.51662706	         86.51662706	          0.05000250	          0.05000211	          0.05000049	          0.05924488	          0.05924274	          0.05000393	          0.24979200	          0.06921402	          0.21036667	          0.08121601	          0.07033638	          0.16941365	          0.19782587	          0.16996433	          0.13639539	          0.17543162	          0.05000095	          0.11829807	          0.16062148	          0.05000119	          0.05000052	          0.24178477	          0.10366606	          0.10202773	          0.25313262	          0.15406848	          0.05924594	          0.05000022	          0.05000074	          0.05000072	          0.05000075	          0.08317979	          0.07669295	          0.05000016	          0.05000295	          0.08215249	          0.05567385	          0.30160817	          0.16311017	          0.13485144	          0.27901998	          0.56804363	          0.38723057	          0.06212014	          0.12216656	          0.05680946	          0.42253437	          0.07067657	          0.05000019	          0.53487338	          0.25280907	          0.08318191	          0.05000506	          0.05000071	          0.05000053	          0.08301084	          0.13943147	          0.05000118	          0.05000128	          0.05000114	          0.05000305	          0.05000280	          0.42009903	          0.05001358	          0.05000128	          0.05000452	          0.05000269	          0.05000215	          0.54650577	          0.69896754	          0.05000028	          0.05000153	          0.05000038	          0.32580247	          0.08539745	          0.09059350	          0.06740813	          0.49841390	          0.59775328	          0.36288487	          0.40573566	          0.42451313	          0.48073727	          0.05000006	          0.07393793	          0.21036905	          0.05000043	          0.05000016	          0.07731462	          0.05000027	          0.05000012	          0.05000019	
          1.68629425	         -2.90674080	          2.39493962	        -10.02992557	          2.24906198	          0.90866225	          0.01285884	         25.38492172	          2.03824610	         -3.90026457	        -20.47705064	         -1.26514463	         11.52933455	         -6.85524831	         -8.31097713	         -4.60415742	         -4.41148230	         -4.29894421	         -4.44322582	          2.91107299	         -5.52549573	         -7.74521764	         32.46279959	         -2.88176029	         -1.10603723	          2.93359034	         -2.97552572	        -13.45102615	          9.41060639	          2.95150787	        -13.74449178	         19.38585951	          0.95980263	         63.49403053	         86.51662706	         86.51662706	          0.05000014	          0.05000023	          0.05000163	          0.05000035	          0.05000033	          0.05000046	          0.21081263	          0.05841362	          0.17753954	          0.06854277	          0.07695189	          0.15915343	          0.20840462	          0.22425789	          0.13106676	          0.19420075	          0.05000487	          0.09985336	          0.14354111	          0.05000135	          0.09316142	          0.26125567	          0.08748963	          0.08610704	          0.41614867	          0.13002715	          0.05000155	          0.05018361	          0.05000227	          0.05000212	          0.05000203	          0.07019992	          0.07019946	          0.06224692	          0.05000031	          0.07019682	          0.06903537	          0.34945497	          0.19829739	          0.13901804	          0.48411940	          0.58447072	          0.32680508	          0.05242654	          0.10310281	          0.05824670	          0.35659922	          0.05964775	          0.05000045	          0.45140803	          0.21335904	          0.07020174	          0.05000727	          0.05000097	          0.05000085	          0.07005730	          0.11767401	          0.11801561	          0.05000654	          0.05000886	          0.05001475	          0.05001756	          0.35454535	          0.05317882	          0.05000279	          0.05000848	          0.05000506	          0.05000480	          0.46122526	          0.66225687	          0.05000072	          0.05000409	          0.05000090	          0.35046936	          0.16395770	          0.16395903	          0.14389812	          0.42063773	          0.50447566	          0.30625763	          0.34242219	          0.44415607	          0.41827568	          0.05000007	          0.06240035	          0.17754160	          0.05000028	          0.05000012	          0.06525012	          0.05000041	          0.05924507	          0.05000013	
          1.69738829	         -2.92279287	          2.57402242	        -10.37928351	          2.26783735	          0.90809252	          0.01309431	         25.34378980	          2.39954965	         -3.56017947	        -20.35793813	         -1.77165779	         11.03824164	         -8.82533951	         -9.90206963	         -5.06270253	         -5.93492007	         -4.56040811	         -3.51766780	          3.04518177	         -7.09524871	         -7.95004045	         36.24618234	         -2.55490885	         -1.40224788	          3.01201538	         -4.25196656	        -13.46134548	          9.86134247	          2.20144315	        -13.64064988	         19.36519952	          0.32896683	         66.22524079	         86.51662706	         86.51662706	          0.26434702	          0.18811273	          0.05000137	          0.08333333	          0.07059947	          0.07021154	          0.17791588	          0.08460379	          0.14983499	          0.07020171	          0.06494475	          0.13431818	          0.17588398	          0.18926358	          0.11061529	          0.23124075	          0.05000179	          0.08427334	          0.12464201	          0.17004730	          0.21206703	          0.31331341	          0.07383719	          0.07267034	          0.35120995	          0.10973722	          0.07019761	          0.05000012	          0.05000034	          0.05000032	          0.05000032	          0.05924543	          0.05924509	          0.05253346	          0.05000914	          0.05924303	          0.05826291	          0.38930078	          0.16735408	          0.12887900	          0.46353656	          0.65131950	          0.61301763	          0.05000008	          0.08701398	          0.05000021	          0.30095337	          0.05033997	          0.05000015	          0.38096735	          0.18006512	          0.05924712	          0.05000594	          0.05000063	          0.05000045	          0.05912521	          0.09931183	          0.14512359	          0.05923635	          0.05000260	          0.05000493	          0.05000347	          0.34667368	          0.05928937	          0.05000140	          0.05000384	          0.05000228	          0.05000182	          0.38925253	          0.64915718	          0.05000025	          0.05000127	          0.05000030	          0.29577997	          0.13837360	          0.13837451	          0.12144417	          0.35499832	          0.42575362	          0.25846692	          0.28898816	          0.42442644	          0.35300581	          0.05000004	          0.06421392	          0.14983675	          0.05000027	          0.05000010	          0.05506846	          0.06158810	          0.05000014	          0.05000049	
